<svg width="43" height="33" viewBox="0 0 43 33" fill="none" xmlns="http://www.w3.org/2000/svg">
<g filter="url(#filter0_d_312_104)">
<path fill-rule="evenodd" clip-rule="evenodd" d="M5.34615 0C4.6027 0 4 0.621833 4 1.38889C4 2.15594 4.6027 2.77778 5.34615 2.77778H37.6538C38.3972 2.77778 39 2.15594 39 1.38889C39 0.621833 38.3972 0 37.6538 0H5.34615ZM4 12.5C4 11.7329 4.6027 11.1111 5.34615 11.1111H37.6538C38.3972 11.1111 39 11.7329 39 12.5C39 13.2671 38.3972 13.8889 37.6538 13.8889H5.34615C4.6027 13.8889 4 13.2671 4 12.5ZM4 23.6111C4 22.8442 4.6027 22.2222 5.34615 22.2222H37.6538C38.3972 22.2222 39 22.8442 39 23.6111C39 24.3781 38.3972 25 37.6538 25H5.34615C4.6027 25 4 24.3781 4 23.6111Z" fill="black"/>
</g>
<defs>
<filter id="filter0_d_312_104" x="0" y="0" width="43" height="33" filterUnits="userSpaceOnUse" color-interpolation-filters="sRGB">
<feFlood flood-opacity="0" result="BackgroundImageFix"/>
<feColorMatrix in="SourceAlpha" type="matrix" values="0 0 0 0 0 0 0 0 0 0 0 0 0 0 0 0 0 0 127 0" result="hardAlpha"/>
<feOffset dy="4"/>
<feGaussianBlur stdDeviation="2"/>
<feComposite in2="hardAlpha" operator="out"/>
<feColorMatrix type="matrix" values="0 0 0 0 0 0 0 0 0 0 0 0 0 0 0 0 0 0 0.25 0"/>
<feBlend mode="normal" in2="BackgroundImageFix" result="effect1_dropShadow_312_104"/>
<feBlend mode="normal" in="SourceGraphic" in2="effect1_dropShadow_312_104" result="shape"/>
</filter>
</defs>
</svg>
